<mxfile host="app.diagrams.net" agent="Mozilla/5.0 (Windows NT 10.0; Win64; x64) AppleWebKit/537.36 (KHTML, like Gecko) Chrome/134.0.0.0 Safari/537.36" version="26.1.2">
  <diagram name="PÃ¡gina-1" id="LjLu9CDBkgNfk54tFV3A">
    <mxGraphModel dx="933" dy="456" grid="1" gridSize="10" guides="1" tooltips="1" connect="1" arrows="1" fold="1" page="1" pageScale="1" pageWidth="827" pageHeight="1169" math="0" shadow="0">
      <root>
        <mxCell id="0" />
        <mxCell id="1" parent="0" />
        <mxCell id="p6bKNz7Y8y2HQ6K6dgqx-1" value="Sensor DHT22" style="shape=ellipse;fillColor=#FFD700;strokeColor=#000000;fontSize=12" vertex="1" parent="1">
          <mxGeometry x="40" y="90" width="120" height="50" as="geometry" />
        </mxCell>
        <mxCell id="p6bKNz7Y8y2HQ6K6dgqx-2" value="Microcontrolador ESP32" style="rounded=1;fillColor=#87CEFA;strokeColor=#000000;fontSize=12" vertex="1" parent="1">
          <mxGeometry x="240" y="90" width="160" height="60" as="geometry" />
        </mxCell>
        <mxCell id="p6bKNz7Y8y2HQ6K6dgqx-3" value="Wi-Fi" style="shape=cloud;fillColor=#D3D3D3;strokeColor=#000000;fontSize=12" vertex="1" parent="1">
          <mxGeometry x="490" y="40" width="100" height="60" as="geometry" />
        </mxCell>
        <mxCell id="p6bKNz7Y8y2HQ6K6dgqx-4" value="Servidor Remoto" style="shape=cylinder;fillColor=#A9A9A9;strokeColor=#000000;fontSize=12" vertex="1" parent="1">
          <mxGeometry x="640" y="40" width="120" height="80" as="geometry" />
        </mxCell>
        <mxCell id="p6bKNz7Y8y2HQ6K6dgqx-5" value="Alarme (Buzzer/LED)" style="shape=hexagon;fillColor=#FF6347;strokeColor=#000000;fontSize=12" vertex="1" parent="1">
          <mxGeometry x="240" y="240" width="160" height="60" as="geometry" />
        </mxCell>
        <mxCell id="p6bKNz7Y8y2HQ6K6dgqx-6" style="edgeStyle=elbowEdgeStyle;rounded=1;strokeColor=#000000" edge="1" parent="1" source="p6bKNz7Y8y2HQ6K6dgqx-1" target="p6bKNz7Y8y2HQ6K6dgqx-2">
          <mxGeometry relative="1" as="geometry" />
        </mxCell>
        <mxCell id="p6bKNz7Y8y2HQ6K6dgqx-7" style="edgeStyle=elbowEdgeStyle;rounded=1;strokeColor=#000000" edge="1" parent="1" source="p6bKNz7Y8y2HQ6K6dgqx-2" target="p6bKNz7Y8y2HQ6K6dgqx-3">
          <mxGeometry relative="1" as="geometry" />
        </mxCell>
        <mxCell id="p6bKNz7Y8y2HQ6K6dgqx-8" style="edgeStyle=elbowEdgeStyle;rounded=1;strokeColor=#000000" edge="1" parent="1" source="p6bKNz7Y8y2HQ6K6dgqx-3" target="p6bKNz7Y8y2HQ6K6dgqx-4">
          <mxGeometry relative="1" as="geometry" />
        </mxCell>
        <mxCell id="p6bKNz7Y8y2HQ6K6dgqx-9" style="edgeStyle=elbowEdgeStyle;rounded=1;strokeColor=#000000" edge="1" parent="1" source="p6bKNz7Y8y2HQ6K6dgqx-2" target="p6bKNz7Y8y2HQ6K6dgqx-5">
          <mxGeometry relative="1" as="geometry" />
        </mxCell>
      </root>
    </mxGraphModel>
  </diagram>
</mxfile>
